<?xml version="1.0" standalone="no"?>
<!DOCTYPE svg PUBLIC "-//W3C//DTD SVG 20010904//EN"
 "http://www.w3.org/TR/2001/REC-SVG-20010904/DTD/svg10.dtd">
<svg version="1.0" xmlns="http://www.w3.org/2000/svg"
 width="1080.000000pt" height="1080.000000pt" viewBox="0 0 1080.000000 1080.000000"
 preserveAspectRatio="xMidYMid meet">
<metadata>
Created by potrace 1.14, written by Peter Selinger 2001-2017
</metadata>
<g transform="translate(0.000000,1080.000000) scale(0.100000,-0.100000)"
fill="#000000" stroke="none">
<path d="M0 5400 l0 -5400 5400 0 5400 0 0 5400 0 5400 -5400 0 -5400 0 0
-5400z m6915 2570 c318 -36 594 -212 756 -482 99 -164 136 -303 145 -541 l6
-152 -42 -105 c-83 -209 -224 -455 -365 -635 -393 -504 -930 -840 -1540 -964
-161 -33 -239 -41 -430 -48 -610 -20 -1194 174 -1685 563 -106 84 -325 302
-413 412 -102 127 -211 298 -294 460 l-76 147 6 240 c7 261 17 334 68 466 132
344 456 596 820 638 108 12 2933 13 3044 1z m863 -2763 c-133 -230 -283 -421
-484 -619 -139 -136 -237 -215 -399 -323 -468 -311 -973 -465 -1530 -465 -511
0 -994 136 -1430 403 -351 215 -686 542 -903 883 l-52 81 2 473 3 472 34 -68
c222 -451 578 -840 1014 -1108 105 -64 340 -176 462 -219 671 -237 1403 -188
2030 137 574 296 1016 788 1256 1396 l34 85 3 -528 2 -528 -42 -72z m39 -1012
c-4 -426 -7 -511 -22 -575 -98 -430 -445 -741 -880 -790 -122 -13 -2908 -13
-3030 0 -127 15 -224 43 -340 100 -272 133 -471 387 -540 690 -14 62 -18 148
-22 510 -3 239 -3 451 -1 470 l3 34 45 -69 c272 -426 704 -801 1169 -1016 802
-372 1740 -335 2506 99 440 250 797 606 1066 1062 l44 75 3 -45 c2 -25 2 -270
-1 -545z"/>
</g>
</svg>
